<svg version="1.1" id="Layer_1" fill="#ffffff" xmlns="http://www.w3.org/2000/svg" xmlns:xlink="http://www.w3.org/1999/xlink" x="0px" y="0px"
	 viewBox="0 0 512 512" style="enable-background:new 0 0 512 512;" xml:space="preserve">
<g>
	<g>
		<path d="M98.164,84.845c-3.736-3.165-9.33-2.7-12.493,1.037c-1.496,1.767-2.983,3.571-4.42,5.362
			c-3.064,3.821-2.451,9.399,1.369,12.462c1.636,1.312,3.594,1.949,5.541,1.949c2.597,0,5.17-1.136,6.92-3.319
			c1.338-1.668,2.724-3.35,4.12-4.998C102.365,93.602,101.9,88.008,98.164,84.845z"/>
	</g>
</g>
<g>
	<g>
		<path d="M486.215,404.449c-1.984-3.191-5.763-4.792-9.434-3.976c-17.444,3.841-34.958,5.788-52.055,5.788
			c-133.036,0-241.268-108.232-241.268-241.268c0-55.257,18.307-107.329,52.943-150.586c2.349-2.932,2.593-7.028,0.609-10.219
			c-1.983-3.192-5.764-4.792-9.434-3.977c-42.737,9.407-82.736,29.768-115.671,58.881c-3.669,3.242-4.014,8.843-0.771,12.512
			c3.241,3.669,8.843,4.014,12.512,0.771c24.456-21.618,53.087-38.054,83.854-48.272c-27.405,41.94-41.772,90.166-41.772,140.89
			c0,69.18,26.94,134.221,75.857,183.138c48.918,48.92,113.958,75.86,183.14,75.86c10.112,0,20.351-0.632,30.629-1.886
			c-45.245,46.138-106.646,72.167-171.908,72.167c-133.035,0-241.267-108.232-241.267-241.268c0-34.597,7.17-67.983,21.312-99.232
			c2.019-4.459,0.039-9.712-4.422-11.731c-4.461-2.019-9.713-0.039-11.731,4.422c-15.188,33.56-22.888,69.406-22.888,106.541
			c0,69.18,26.94,134.221,75.857,183.138C149.224,485.058,214.264,512,283.446,512c78.95,0,152.635-35.476,202.16-97.331
			C487.955,411.737,488.199,407.641,486.215,404.449z"/>
	</g>
</g>
<g>
</g>
<g>
</g>
<g>
</g>
<g>
</g>
<g>
</g>
<g>
</g>
<g>
</g>
<g>
</g>
<g>
</g>
<g>
</g>
<g>
</g>
<g>
</g>
<g>
</g>
<g>
</g>
<g>
</g>
</svg>
